<?xml version="1.0" encoding="utf-8"?>
<!-- Generator: Adobe Illustrator 27.5.0, SVG Export Plug-In . SVG Version: 6.00 Build 0)  -->
<svg version="1.1" xmlns="http://www.w3.org/2000/svg" xmlns:xlink="http://www.w3.org/1999/xlink"
	x="0px" y="0px"
	viewBox="0 0 500 500" style="enable-background:new 0 0 500 500;" xml:space="preserve">
<g id="Background_Simple">
	<g>
		<path style="fill:#146EF5;" d="M311.74,39.886c0,0-78.574-24.379-149.972,23.108C90.371,110.48,59.596,199.849,32.762,271.534
			c-26.834,71.685-2.407,142.317,57.417,172.375c59.824,30.057,94.87-19.691,174.938-25.572
			c80.068-5.881,102.594,4.894,165.47-44.388c62.877-49.281,66.13-159.258,7.097-237.921
			C378.649,57.365,311.74,39.886,311.74,39.886z"/>
		<path style="opacity:0.7;fill:#FFFFFF;" d="M311.74,39.886c0,0-78.574-24.379-149.972,23.108
			C90.371,110.48,59.596,199.849,32.762,271.534c-26.834,71.685-2.407,142.317,57.417,172.375
			c59.824,30.057,94.87-19.691,174.938-25.572c80.068-5.881,102.594,4.894,165.47-44.388c62.877-49.281,66.13-159.258,7.097-237.921
			C378.649,57.365,311.74,39.886,311.74,39.886z"/>
	</g>
</g>
<g id="Graphics">
	<g style="opacity:0.13;">
		<g>
			<path d="M252.336,449.443l-15.016-55.98l-4.326,57.797c-0.429,5.734,4.123,10.616,9.873,10.588l0,0
				C249.327,461.817,254.009,455.682,252.336,449.443z"/>
			<path d="M172.559,447.273l4.61-56.746l-25.983,50.658c-3.252,6.341,0.088,14.074,6.934,16.054l0,0
				C165.001,459.229,171.979,454.413,172.559,447.273z"/>
			<path d="M92.61,415.827c8.697-12.952,22.389-33.779,22.389-33.779l-35.949,18.56c-6.499,3.355-7.677,12.154-2.289,17.1v0
				C81.507,422.066,89.018,421.177,92.61,415.827z"/>
			<path d="M36.485,206.003c15.298,3.06,39.785,7.71,39.785,7.71L45.334,187.64c-5.593-4.713-14.169-2.424-16.669,4.449v0
				C26.462,198.146,30.166,204.739,36.485,206.003z"/>
			<path d="M51.377,100.427c9.071,5.191,23.644,13.342,23.644,13.342L60.896,90.637c-2.553-4.182-8.489-4.547-11.536-0.71h0
				C46.676,93.307,47.63,98.283,51.377,100.427z"/>
			<path d="M63.498,349.981l36.197-22.267l-42.351,3.531c-6.732,0.561-11.042,7.427-8.621,13.734h0
				C50.997,350.904,58.093,353.306,63.498,349.981z"/>
			<path d="M99.003,357.18c0.847-3.428,4.312-5.521,7.741-4.674c3.428,0.847,5.521,4.312,4.674,7.741
				c-0.847,3.428-4.312,5.521-7.741,4.674C100.248,364.074,98.156,360.608,99.003,357.18z"/>
			<path d="M109.441,429.57c0.847-3.428,4.312-5.521,7.741-4.674c3.428,0.847,5.521,4.312,4.674,7.741
				c-0.847,3.428-4.312,5.521-7.74,4.674C110.687,436.464,108.594,432.998,109.441,429.57z"/>
			<circle cx="38.458" cy="388.985" r="11.829"/>
			<path d="M197.663,424.36c0.847-3.428,4.312-5.521,7.74-4.674c3.428,0.847,5.521,4.312,4.674,7.741
				c-0.847,3.428-4.312,5.521-7.74,4.674C198.909,431.253,196.816,427.788,197.663,424.36z"/>
			<path d="M36.52,306.181c1.27-5.142,6.468-8.281,11.611-7.011c5.142,1.27,8.281,6.469,7.011,11.611
				c-1.27,5.142-6.469,8.281-11.611,7.011C38.389,316.522,35.25,311.324,36.52,306.181z"/>
		</g>
		<g>
			<path d="M97.104,84.001l51.1,27.35l-39.192-42.699c-3.888-4.236-10.563-4.256-14.477-0.043l0,0
				C90.139,73.341,91.409,80.953,97.104,84.001z"/>
			<path d="M174.983,44.791l43.064,37.241l-25.526-50.89c-3.195-6.37-11.408-8.243-17.049-3.889l0,0
				C169.8,31.63,169.565,40.106,174.983,44.791z"/>
			<path d="M255.589,20.873c5.313,14.668,14.03,38.02,14.03,38.02l6.26-39.971c1.132-7.226-5.272-13.374-12.445-11.949l0,0
				C257.113,8.229,253.395,14.814,255.589,20.873z"/>
			<path d="M433.962,98.066c-6.225,14.305-15.947,37.256-15.947,37.256l32.024-24.725c5.789-4.47,5.365-13.336-0.824-17.233v0
				C443.761,89.931,436.533,92.157,433.962,98.066z"/>
			<path d="M310.751,65.121l-5.075,42.194l23.573-35.36c3.747-5.621,1.051-13.266-5.394-15.293h0
				C317.803,54.758,311.509,58.821,310.751,65.121z"/>
			<path d="M282.316,67.423c0.689,3.463-1.56,6.829-5.023,7.519c-3.463,0.689-6.829-1.56-7.518-5.023
				c-0.689-3.463,1.56-6.83,5.023-7.519C278.261,61.71,281.627,63.959,282.316,67.423z"/>
			<path d="M188.631,117.653c2.266,2.708,1.907,6.741-0.801,9.007c-2.708,2.266-6.741,1.907-9.007-0.801
				c-2.266-2.708-1.907-6.741,0.801-9.007C182.333,114.586,186.365,114.945,188.631,117.653z"/>
			<path d="M74.386,140.697c1.275,6.407-2.886,12.634-9.293,13.909c-6.407,1.275-12.634-2.886-13.909-9.293
				c-1.275-6.407,2.886-12.634,9.293-13.909C66.884,130.129,73.111,134.29,74.386,140.697z"/>
			<path d="M164.466,48.495c0.689,3.463-1.56,6.829-5.023,7.519c-3.463,0.689-6.829-1.56-7.518-5.023
				c-0.689-3.463,1.56-6.829,5.023-7.519C160.41,42.783,163.777,45.032,164.466,48.495z"/>
			<path d="M361.179,36.366c3.237,4.193,2.462,10.216-1.731,13.452c-4.193,3.237-10.216,2.462-13.452-1.731
				c-3.237-4.193-2.462-10.216,1.731-13.453C351.919,31.398,357.942,32.173,361.179,36.366z"/>
		</g>
	</g>
</g>
<g id="Shopping_Cart_00000073704796207364784080000013232276850478793114_">
	<g>
		<g>
			<g>
				<path style="fill:#BFBFBF;stroke:#263238;stroke-linecap:round;stroke-linejoin:round;stroke-miterlimit:10;" d="
					M172.594,352.053c0.255-0.092,0.5-0.223,0.727-0.395l151.302-114.53l97.513-15.91c1.498-0.246,2.509-1.654,2.266-3.149
					c-0.244-1.495-1.654-2.509-3.149-2.266l-98.184,16.02c-0.442,0.074-0.858,0.25-1.214,0.52L170.01,347.285
					c-1.208,0.914-1.446,2.635-0.532,3.842C170.221,352.107,171.495,352.448,172.594,352.053z"/>
			</g>
			<g>
				<path style="fill:#BFBFBF;stroke:#263238;stroke-linecap:round;stroke-linejoin:round;stroke-miterlimit:10;" d="
					M334.471,341.288c0.597-0.215,0.983-0.824,0.893-1.477l-13.756-120.975c-0.507-3.688,1.183-7.38,4.306-9.406l8.852-5.742
					c0.635-0.412,0.817-1.261,0.404-1.897c-0.412-0.637-1.262-0.815-1.897-0.404l-8.852,5.742
					c-4.012,2.602-6.183,7.344-5.531,12.081l13.756,120.975c0.103,0.75,0.795,1.275,1.545,1.172
					C334.29,341.343,334.383,341.32,334.471,341.288z"/>
			</g>
			<g>
				<g>
					<path style="fill:#BFBFBF;stroke:#263238;stroke-linecap:round;stroke-linejoin:round;stroke-miterlimit:10;" d="
						M192.198,371.856c0.141-0.051,0.275-0.126,0.398-0.225l132.783-103.902l98.595-11.354c0.752-0.052,1.325-0.708,1.272-1.464
						c-0.053-0.755-0.708-1.325-1.464-1.272l-99.026,11.384c-0.281,0.02-0.549,0.125-0.767,0.302L190.87,369.499
						c-0.589,0.477-0.68,1.341-0.202,1.929C191.044,371.894,191.664,372.048,192.198,371.856z"/>
				</g>
				<g>
					<path style="fill:#BFBFBF;stroke:#263238;stroke-linecap:round;stroke-linejoin:round;stroke-miterlimit:10;" d="
						M215.381,400.397c0.139-0.05,0.274-0.124,0.396-0.222l114.235-95.06l97.634-3.954c0.754-0.049,1.325-0.707,1.272-1.464
						c-0.053-0.755-0.708-1.325-1.464-1.272l-98.063,3.984c-0.279,0.02-0.547,0.125-0.765,0.3l-114.57,95.329
						c-0.59,0.476-0.682,1.339-0.207,1.929C214.226,400.434,214.846,400.589,215.381,400.397z"/>
				</g>
				<path style="fill:#BFBFBF;stroke:#263238;stroke-linecap:round;stroke-linejoin:round;stroke-miterlimit:10;" d="
					M393.55,225.966l2.709-0.442l11.967,112.069c0.079,0.647-0.307,1.244-0.896,1.455c-0.095,0.034-0.196,0.059-0.3,0.071
					c-0.752,0.092-1.436-0.444-1.527-1.195L393.55,225.966z"/>
				<path style="fill:#BFBFBF;stroke:#263238;stroke-linecap:round;stroke-linejoin:round;stroke-miterlimit:10;" d="
					M364.039,230.801l2.709-0.442l9.559,107.889c0.082,0.648-0.305,1.248-0.895,1.461c-0.093,0.034-0.192,0.058-0.294,0.071
					c-0.751,0.095-1.437-0.438-1.532-1.19L364.039,230.801z"/>
				<path style="fill:#BFBFBF;stroke:#263238;stroke-linecap:round;stroke-linejoin:round;stroke-miterlimit:10;" d="
					M339.15,234.838l2.709-0.442l9.278,105.036c0.081,0.648-0.305,1.248-0.895,1.461c-0.093,0.034-0.192,0.058-0.294,0.071
					c-0.752,0.095-1.437-0.438-1.532-1.19L339.15,234.838z"/>
				<path style="fill:#BFBFBF;stroke:#263238;stroke-linecap:round;stroke-linejoin:round;stroke-miterlimit:10;" d="
					M229.085,309.447c0,0.001,0.001,0.001,0.001,0.002l47.056,75.999c0.42,0.63,0.249,1.482-0.38,1.902
					c-0.095,0.064-0.195,0.113-0.297,0.15c-0.58,0.209-1.248,0.006-1.605-0.53l-46.97-75.86L229.085,309.447z"/>
				<path style="fill:#BFBFBF;stroke:#263238;stroke-linecap:round;stroke-linejoin:round;stroke-miterlimit:10;" d="
					M251.593,292.409c0.14,0.107,0.262,0.241,0.355,0.402l41.486,78.628c0.379,0.656,0.154,1.494-0.502,1.874
					c-0.072,0.041-0.146,0.076-0.223,0.103c-0.612,0.22-1.314-0.022-1.651-0.605l-41.486-78.628
					c-0.034-0.059-0.057-0.121-0.082-0.182L251.593,292.409z"/>
				<path style="fill:#BFBFBF;stroke:#263238;stroke-linecap:round;stroke-linejoin:round;stroke-miterlimit:10;" d="
					M202.595,329.499c0.004,0.004,0.008,0.008,0.012,0.012l53.175,72.367c0.458,0.604,0.34,1.463-0.264,1.922
					c-0.114,0.087-0.237,0.152-0.364,0.198c-0.549,0.198-1.186,0.028-1.557-0.461l-53.175-72.367
					c-0.004-0.005-0.006-0.011-0.01-0.017L202.595,329.499z"/>
				<path style="fill:#BFBFBF;stroke:#263238;stroke-linecap:round;stroke-linejoin:round;stroke-miterlimit:10;" d="
					M271.836,277.086c0.1,0.104,0.19,0.221,0.257,0.358l37.651,81.649c0.327,0.683,0.04,1.503-0.642,1.83
					c-0.044,0.021-0.087,0.039-0.131,0.055c-0.654,0.235-1.392-0.058-1.699-0.697l-37.607-81.552L271.836,277.086z"/>
				<path style="fill:#BFBFBF;stroke:#263238;stroke-linecap:round;stroke-linejoin:round;stroke-miterlimit:10;" d="
					M292.028,261.801l33.705,84.448c0.277,0.705-0.071,1.5-0.776,1.777c-0.011,0.005-0.024,0.01-0.037,0.014
					c-0.696,0.25-1.469-0.097-1.74-0.79l-33.42-83.732L292.028,261.801z"/>
			</g>
		</g>
		<g>
			<g>
				<path style="fill:#BFBFBF;stroke:#263238;stroke-linecap:round;stroke-linejoin:round;stroke-miterlimit:10;" d="
					M235.283,418.979c0.176-0.064,0.346-0.156,0.503-0.278l97.804-76.05l95.091-3.069c1.008-0.031,1.8-0.877,1.769-1.886
					c-0.033-1.009-0.877-1.801-1.887-1.768l-95.685,3.087c-0.385,0.011-0.758,0.146-1.063,0.384l-98.273,76.415
					c-0.798,0.62-0.941,1.769-0.321,2.566C233.719,419.021,234.558,419.239,235.283,418.979z"/>
			</g>
			<g>
				<path style="fill:#BFBFBF;stroke:#263238;stroke-linecap:round;stroke-linejoin:round;stroke-miterlimit:10;" d="M300.75,421.97
					c0.175-0.063,0.342-0.154,0.497-0.274l106.557-81.759c0.8-0.616,0.948-1.764,0.331-2.564c-0.617-0.8-1.766-0.95-2.565-0.33
					l-106.557,81.759c-0.8,0.616-0.948,1.764-0.331,2.564C299.18,422.01,300.022,422.232,300.75,421.97z"/>
			</g>
			<g>
				<path style="fill:#BFBFBF;stroke:#263238;stroke-linecap:round;stroke-linejoin:round;stroke-miterlimit:10;" d="
					M275.051,421.273c0.186-0.067,0.364-0.166,0.527-0.297l100.164-80.599c0.787-0.633,0.912-1.784,0.278-2.571
					c-0.633-0.787-1.785-0.909-2.57-0.278l-100.165,80.6c-0.786,0.633-0.911,1.784-0.278,2.571
					C273.509,421.323,274.337,421.53,275.051,421.273z"/>
			</g>
			<g>
				<path style="fill:#BFBFBF;stroke:#263238;stroke-linecap:round;stroke-linejoin:round;stroke-miterlimit:10;" d="
					M253.118,419.439c0.182-0.066,0.358-0.162,0.518-0.29l97.377-77.428c0.79-0.629,0.922-1.779,0.293-2.569
					c-0.628-0.79-1.778-0.925-2.57-0.294l-97.377,77.428c-0.791,0.629-0.922,1.779-0.294,2.569
					C251.568,419.485,252.4,419.697,253.118,419.439z"/>
			</g>
		</g>
		<g>
			<g>
				<g>
					<path style="fill:#263238;stroke:#263238;stroke-linecap:round;stroke-linejoin:round;stroke-miterlimit:10;" d="
						M367.86,472.367c-1.162,6.53,2.347,12.617,7.838,13.594c5.491,0.978,10.885-3.524,12.048-10.055
						c1.162-6.53-2.347-12.617-7.838-13.594C374.416,461.335,369.022,465.836,367.86,472.367z"/>
					<path style="fill:#FFFFFF;stroke:#263238;stroke-linecap:round;stroke-linejoin:round;stroke-miterlimit:10;" d="
						M372.392,474.152c-0.706,3.967,1.426,7.664,4.762,8.258c3.336,0.594,6.612-2.141,7.319-6.108
						c0.706-3.967-1.426-7.664-4.762-8.258C376.374,467.451,373.098,470.185,372.392,474.152z"/>
				</g>
				<path style="fill:#FFFFFF;stroke:#263238;stroke-linecap:round;stroke-linejoin:round;stroke-miterlimit:10;" d="
					M373.246,457.984l8.495,13.961c0.874,1.437,0.784,3.262-0.227,4.605l0,0c-1.219,1.62-3.437,2.107-5.223,1.149l-16.311-8.752
					L373.246,457.984z"/>
			</g>
			<g>
				<g>
					
						<ellipse transform="matrix(0.1752 -0.9845 0.9845 0.1752 -205.0451 692.1116)" style="fill:#263238;stroke:#263238;stroke-linecap:round;stroke-linejoin:round;stroke-miterlimit:10;" cx="310.566" cy="468.437" rx="12.01" ry="10.099"/>
					<path style="fill:#FFFFFF;stroke:#263238;stroke-linecap:round;stroke-linejoin:round;stroke-miterlimit:10;" d="
						M305.154,468.453c-0.706,3.967,1.426,7.664,4.762,8.258c3.336,0.594,6.612-2.141,7.319-6.108
						c0.706-3.967-1.426-7.664-4.762-8.258C309.137,461.751,305.86,464.486,305.154,468.453z"/>
				</g>
				<path style="fill:#FFFFFF;stroke:#263238;stroke-linecap:round;stroke-linejoin:round;stroke-miterlimit:10;" d="
					M306.008,452.285l8.495,13.961c0.874,1.437,0.784,3.262-0.227,4.605l0,0c-1.219,1.619-3.437,2.107-5.223,1.149l-16.311-8.752
					L306.008,452.285z"/>
			</g>
			<g>
				<g>
					
						<ellipse transform="matrix(0.1752 -0.9845 0.9845 0.1752 -97.7824 717.8644)" style="fill:#263238;stroke:#263238;stroke-linecap:round;stroke-linejoin:round;stroke-miterlimit:10;" cx="379.574" cy="417.295" rx="12.01" ry="10.099"/>
					<path style="fill:#FFFFFF;stroke:#263238;stroke-linecap:round;stroke-linejoin:round;stroke-miterlimit:10;" d="
						M374.163,417.31c-0.706,3.967,1.426,7.664,4.762,8.258c3.336,0.594,6.613-2.141,7.319-6.108
						c0.706-3.967-1.426-7.664-4.762-8.258C378.146,410.609,374.869,413.343,374.163,417.31z"/>
				</g>
				<path style="fill:#FFFFFF;stroke:#263238;stroke-linecap:round;stroke-linejoin:round;stroke-miterlimit:10;" d="
					M375.017,401.142l8.495,13.961c0.874,1.437,0.784,3.262-0.227,4.605l0,0c-1.219,1.62-3.437,2.107-5.224,1.149l-16.311-8.752
					L375.017,401.142z"/>
			</g>
			<g>
				<g>
					
						<ellipse transform="matrix(0.1752 -0.9845 0.9845 0.1752 -42.2876 786.486)" style="fill:#263238;stroke:#263238;stroke-linecap:round;stroke-linejoin:round;stroke-miterlimit:10;" cx="448.273" cy="418.483" rx="12.01" ry="10.099"/>
					<path style="fill:#FFFFFF;stroke:#263238;stroke-linecap:round;stroke-linejoin:round;stroke-miterlimit:10;" d="
						M442.862,418.498c-0.706,3.967,1.426,7.664,4.762,8.258c3.336,0.594,6.612-2.141,7.319-6.108
						c0.706-3.967-1.426-7.664-4.762-8.258C446.844,411.797,443.568,414.531,442.862,418.498z"/>
				</g>
				<path style="fill:#FFFFFF;stroke:#263238;stroke-linecap:round;stroke-linejoin:round;stroke-miterlimit:10;" d="
					M443.716,402.33l8.495,13.961c0.874,1.437,0.784,3.262-0.227,4.605l0,0c-1.219,1.619-3.437,2.107-5.224,1.149l-16.311-8.752
					L443.716,402.33z"/>
			</g>
			<g>
				<path style="fill:#FFFFFF;stroke:#263238;stroke-linecap:round;stroke-linejoin:round;stroke-miterlimit:10;" d="
					M352.335,475.422c1.836-0.661,3.576-1.615,5.156-2.846l93.233-72.643c2.581-2.01,4.173-5.037,4.367-8.304
					c0.215-3.623-1.329-7.161-4.131-9.467l-36.007-29.996c-0.967-0.796-2.352-0.837-3.363-0.095l-65.583,48.167
					c-1.222,0.894-1.488,2.611-0.593,3.834c0.894,1.222,2.606,1.49,3.833,0.593l29.182-21.359c0.034,0.063,0.071,0.124,0.11,0.184
					l0.566,0.87c1.33,2.045,1.587,4.619,0.688,6.887c-0.518,1.306-1.389,2.44-2.518,3.276l-91.127,67.541
					c-1.535,1.139-2.204,3.067-1.703,4.911c0.5,1.843,2.05,3.168,3.95,3.375l55.615,6.055
					C346.865,476.714,349.701,476.37,352.335,475.422z M412.518,357.478l34.956,28.92c1.452,1.194,2.252,3.028,2.14,4.905
					c-0.101,1.693-0.925,3.26-2.262,4.302l-93.234,72.644c-2.716,2.117-6.095,3.075-9.514,2.701l-53.391-5.813l89.329-66.208
					c1.951-1.446,3.456-3.404,4.351-5.663c1.553-3.917,1.238-8.627-1.059-12.16l-0.565-0.869c-0.096-0.147-0.204-0.283-0.322-0.406
					L412.518,357.478z"/>
			</g>
			<path style="fill:#263238;stroke:#263238;stroke-linecap:round;stroke-linejoin:round;stroke-miterlimit:10;" d="
				M379.106,384.358l-0.676-1.054l4.517-3.473l0.887,1.275c1.026,1.578,1.531,3.603,1.806,5.417l-5.828,4.671
				C380.686,388.939,380.426,386.388,379.106,384.358z"/>
		</g>
		<g>
			<path style="fill:#263238;stroke:#263238;stroke-linecap:round;stroke-linejoin:round;stroke-miterlimit:10;" d="
				M433.602,191.151c2.594-0.934,4.132-3.778,3.5-6.729c-0.693-3.236-3.735-5.374-6.794-4.775l-92.725,18.161
				c-3.059,0.601-4.977,3.709-4.283,6.945c0.693,3.236,3.735,5.374,6.794,4.775l92.725-18.161
				C433.089,191.314,433.351,191.242,433.602,191.151z"/>
		</g>
		<g>
			<path style="fill:#FFFFFF;stroke:#263238;stroke-linecap:round;stroke-linejoin:round;stroke-miterlimit:10;" d="
				M418.793,223.332c0.578-0.208,0.963-0.789,0.899-1.428l-1.876-18.597c-0.368-3.65,1.327-7.141,4.424-9.108l12.507-7.947
				c0.639-0.406,0.828-1.254,0.422-1.893c-0.406-0.639-1.254-0.825-1.893-0.422l-12.507,7.946c-3.978,2.528-6.155,7.01-5.682,11.699
				l1.876,18.597c0.076,0.754,0.749,1.303,1.502,1.227C418.58,223.394,418.69,223.369,418.793,223.332z"/>
		</g>
		<g>
			<g>
				<g>
					<path style="fill:#FFFFFF;stroke:#263238;stroke-linecap:round;stroke-linejoin:round;stroke-miterlimit:10;" d="
						M320.257,423.034c0.129-0.047,0.252-0.113,0.363-0.196l110.27-83.359c0.382-0.289,0.585-0.756,0.537-1.232l-11.736-116.344
						c-0.076-0.754-0.749-1.303-1.502-1.227c-0.755,0.074-1.303,0.748-1.227,1.502l11.658,115.577l-109.267,82.6l-84.691-3.098
						l-61.98-68.705c-0.508-0.562-1.37-0.61-1.937-0.099c-0.562,0.508-0.607,1.374-0.1,1.937l62.369,69.135
						c0.249,0.275,0.598,0.438,0.968,0.451l85.758,3.137C319.919,423.121,320.094,423.093,320.257,423.034z"/>
				</g>
				<g>
					<path style="fill:#FFFFFF;stroke:#263238;stroke-linecap:round;stroke-linejoin:round;stroke-miterlimit:10;" d="
						M320.256,423.035c0.061-0.022,0.122-0.049,0.182-0.081c0.668-0.355,0.922-1.186,0.566-1.855l-42.978-80.752
						c-0.356-0.669-1.18-0.927-1.855-0.566c-0.668,0.355-0.922,1.186-0.566,1.855l42.978,80.752
						C318.906,422.998,319.625,423.262,320.256,423.035z"/>
				</g>
				<g>
					<path style="fill:#FFFFFF;stroke:#263238;stroke-linecap:round;stroke-linejoin:round;stroke-miterlimit:10;" d="
						M298.266,422.062c0.09-0.032,0.179-0.075,0.263-0.128c0.642-0.401,0.838-1.248,0.436-1.89l-47.344-75.703
						c-0.402-0.642-1.254-0.834-1.89-0.436c-0.642,0.401-0.838,1.247-0.436,1.889l47.344,75.703
						C296.989,422.056,297.672,422.276,298.266,422.062z"/>
				</g>
				<g>
					<path style="fill:#FFFFFF;stroke:#263238;stroke-linecap:round;stroke-linejoin:round;stroke-miterlimit:10;" d="
						M273.758,421.609c0.105-0.038,0.207-0.089,0.303-0.154c0.628-0.423,0.793-1.276,0.37-1.904l-48.877-72.446
						c-0.424-0.628-1.279-0.791-1.904-0.37c-0.628,0.423-0.793,1.276-0.37,1.904l48.877,72.446
						C272.516,421.617,273.181,421.817,273.758,421.609z"/>
				</g>
				<g>
					<path style="fill:#FFFFFF;stroke:#263238;stroke-linecap:round;stroke-linejoin:round;stroke-miterlimit:10;" d="
						M251.864,419.829c0.125-0.045,0.247-0.109,0.358-0.192c0.607-0.454,0.73-1.313,0.277-1.92l-52.859-70.627
						c-0.455-0.607-1.317-0.729-1.919-0.276c-0.607,0.454-0.73,1.314-0.277,1.92l52.859,70.626
						C250.673,419.855,251.312,420.028,251.864,419.829z"/>
				</g>
				<g>
					<path style="fill:#FFFFFF;stroke:#263238;stroke-linecap:round;stroke-linejoin:round;stroke-miterlimit:10;" d="
						M338.855,407.065c0.023-0.009,0.047-0.018,0.072-0.028c0.697-0.296,1.022-1.101,0.728-1.798l-36.068-85.171
						c-0.296-0.697-1.082-1.048-1.798-0.728c-0.698,0.295-1.023,1.1-0.728,1.797l36.068,85.172
						C337.413,406.983,338.174,407.31,338.855,407.065z"/>
				</g>
				<g>
					<path style="fill:#FFFFFF;stroke:#263238;stroke-linecap:round;stroke-linejoin:round;stroke-miterlimit:10;" d="
						M356.728,394.45c0.701-0.253,1.074-1.022,0.834-1.73l-31.169-91.959c-0.243-0.718-1.022-1.102-1.739-0.859
						c-0.698,0.202-1.101,1.022-0.858,1.738l31.169,91.959c0.243,0.717,1.022,1.102,1.739,0.859
						C356.712,394.456,356.72,394.453,356.728,394.45z"/>
				</g>
				<g>
					<path style="fill:#FFFFFF;stroke:#263238;stroke-linecap:round;stroke-linejoin:round;stroke-miterlimit:10;" d="
						M374.107,380.465c0.685-0.246,1.062-0.99,0.845-1.693l-29.046-94.655c-0.223-0.724-0.99-1.131-1.714-0.909
						c-0.737,0.211-1.131,0.989-0.909,1.713l29.047,94.655c0.223,0.724,0.99,1.131,1.713,0.908
						C374.066,380.479,374.087,380.472,374.107,380.465z"/>
				</g>
				<g>
					<path style="fill:#FFFFFF;stroke:#263238;stroke-linecap:round;stroke-linejoin:round;stroke-miterlimit:10;" d="
						M389.928,368.587c0.659-0.237,1.04-0.941,0.862-1.632l-25.462-98.651c-0.189-0.733-0.937-1.174-1.671-0.985
						c-0.727,0.184-1.174,0.937-0.985,1.671l25.462,98.65c0.19,0.734,0.938,1.175,1.671,0.985
						C389.846,368.615,389.887,368.602,389.928,368.587z"/>
				</g>
				<g>
					<path style="fill:#FFFFFF;stroke:#263238;stroke-linecap:round;stroke-linejoin:round;stroke-miterlimit:10;" d="
						M404.748,358.229c0.622-0.224,1.008-0.872,0.881-1.544l-20.001-106.026c-0.14-0.745-0.857-1.234-1.602-1.093
						c-0.743,0.134-1.234,0.857-1.094,1.602l20.002,106.026c0.14,0.744,0.857,1.233,1.602,1.094
						C404.609,358.273,404.68,358.254,404.748,358.229z"/>
				</g>
				<g>
					<path style="fill:#FFFFFF;stroke:#263238;stroke-linecap:round;stroke-linejoin:round;stroke-miterlimit:10;" d="
						M418.173,347.214c0.586-0.211,0.972-0.803,0.897-1.449l-12.995-111.253c-0.088-0.752-0.769-1.291-1.522-1.203
						c-0.754,0.092-1.291,0.769-1.203,1.521l12.995,111.253c0.088,0.752,0.769,1.291,1.521,1.203
						C417.973,347.273,418.076,347.249,418.173,347.214z"/>
				</g>
				<g>
					<path style="fill:#FFFFFF;stroke:#263238;stroke-linecap:round;stroke-linejoin:round;stroke-miterlimit:10;" d="
						M291.626,370.351c0.039-0.014,0.072-0.028,0.103-0.042c4.38-1.967,120.688-101.84,133.935-113.222
						c0.575-0.493,0.64-1.359,0.147-1.934c-0.493-0.575-1.358-0.644-1.934-0.147c-35.659,30.636-129.118,110.624-133.294,112.811
						c-0.007,0.002-0.013,0.005-0.02,0.007c-3.724,1.34-62.265,3.057-100.771,3.881c-0.759,0.017-1.358,0.644-1.341,1.4
						c0.016,0.757,0.643,1.358,1.4,1.342C205.985,374.103,286.225,372.295,291.626,370.351z"/>
				</g>
				<g>
					<path style="fill:#FFFFFF;stroke:#263238;stroke-linecap:round;stroke-linejoin:round;stroke-miterlimit:10;" d="
						M305.89,399.223c1.741-0.627,88.07-70.403,125.106-100.373c0.589-0.477,0.68-1.341,0.203-1.929
						c-0.476-0.589-1.339-0.681-1.929-0.203c-41.228,33.363-119.439,96.505-124.328,99.9c-4.312,0.368-57.95-0.14-93.592-0.58
						c-0.755-0.008-1.379,0.597-1.388,1.355c-0.009,0.758,0.597,1.379,1.355,1.388C245.911,399.207,304.199,399.832,305.89,399.223z
						"/>
				</g>
			</g>
			<g>
				<path style="fill:#FFFFFF;stroke:#263238;stroke-linecap:round;stroke-linejoin:round;stroke-miterlimit:10;" d="
					M270.806,346.842c0.297-0.107,0.575-0.265,0.821-0.469l151.817-125.751c1.167-0.966,1.329-2.695,0.363-3.862
					c-0.966-1.167-2.696-1.329-3.862-0.363L268.826,341.571l-97.306,5.161c-1.513,0.079-2.674,1.372-2.593,2.884
					c0.08,1.513,1.371,2.674,2.884,2.594l98.212-5.21C270.291,346.987,270.555,346.933,270.806,346.842z"/>
			</g>
			<g>
				<path style="fill:#FFFFFF;stroke:#263238;stroke-linecap:round;stroke-linejoin:round;stroke-miterlimit:10;" d="
					M320.106,425.727c0.297-0.107,0.575-0.265,0.821-0.469l114.877-87.097c1.167-0.966,1.329-2.695,0.363-3.862
					s-2.696-1.329-3.862-0.363l-114.179,86.518l-88.614-5.724c-1.513,0.079-2.674,1.372-2.593,2.884
					c0.08,1.513,1.371,2.674,2.884,2.594l89.52,5.676C319.591,425.871,319.855,425.817,320.106,425.727z"/>
			</g>
		</g>
	</g>
</g>
<g id="Gift_2">
	<g>
		<g>
			<polygon style="fill:#FFFFFF;stroke:#263238;stroke-linecap:round;stroke-linejoin:round;stroke-miterlimit:10;" points="
				111.328,41.912 77.678,62.404 138.958,72.026 169.851,51.262 			"/>
			<polygon style="fill:#146EF5;stroke:#263238;stroke-linecap:round;stroke-linejoin:round;stroke-miterlimit:10;" points="
				94.614,52.194 152.789,62.816 155.73,60.692 97.882,50.397 			"/>
			<polygon style="fill:#FFFFFF;stroke:#263238;stroke-linecap:round;stroke-linejoin:round;stroke-miterlimit:10;" points="
				138.958,72.026 144.022,128.748 173.902,103.932 169.851,51.262 			"/>
			<polygon style="fill:#146EF5;stroke:#263238;stroke-linecap:round;stroke-linejoin:round;stroke-miterlimit:10;" points="
				155.73,60.692 162.17,113.349 159.063,116.455 152.789,62.816 			"/>
			<polygon style="fill:#FFFFFF;stroke:#263238;stroke-linecap:round;stroke-linejoin:round;stroke-miterlimit:10;" points="
				77.678,62.404 83.756,117.606 144.022,128.748 138.958,72.026 			"/>
		</g>
		<polygon style="fill:#146EF5;stroke:#263238;stroke-linecap:round;stroke-linejoin:round;stroke-miterlimit:10;" points="
			133.632,45.584 104.075,66.596 107.635,67.308 136.851,46.138 		"/>
		<polygon style="fill:#146EF5;stroke:#263238;stroke-linecap:round;stroke-linejoin:round;stroke-miterlimit:10;" points="
			104.075,66.596 109.489,122.273 112.901,122.955 107.635,67.308 		"/>
		<g>
			<g>
				<path style="fill:#146EF5;stroke:#263238;stroke-linecap:round;stroke-linejoin:round;stroke-miterlimit:10;" d="M123.38,54.503
					c0,0-18.264,0.497-23.874,1.354s0.621,4.279,3.345,5.717c2.724,1.438,3.764,1.116,8.559-1.242
					C116.205,57.973,123.38,54.503,123.38,54.503z"/>
				<g>
					<path style="fill:#146EF5;stroke:#263238;stroke-linecap:round;stroke-linejoin:round;stroke-miterlimit:10;" d="
						M121.622,53.663c-1.064,0.638,0.847,3.054,1.192,3.498c1.676,2.159,3.78,4.201,5.985,5.807c2.73,1.988,5.896,3.356,8.936,4.788
						c0.364,0.171,0.728,0.343,1.093,0.513c0.12,0.056,0.669,0.299,0.041,0.017c-0.69-0.309,0.103,0.059,0.307,0.166
						c0.777,0.405,1.535,0.844,2.27,1.32c1.273,0.826,2.476,1.759,3.574,2.807c2.118,2.022,3.962,4.52,4.846,7.337
						c1.932,6.158-0.735,12.608-3.061,18.258c-1.164,2.829-2.45,5.603-3.729,8.381c-0.425,0.923-0.857,1.846-1.226,2.793
						c-0.191,0.49-0.44,1.047-0.421,1.584c0.006,0.171,1.563,0.768,1.75,0.857c0.18,0.086,1.761,0.662,1.767,0.822
						c-0.041-1.182,0.821-2.563,1.29-3.596c1.042-2.295,2.122-4.571,3.124-6.884c1.375-3.172,2.714-6.405,3.681-9.728
						c0.801-2.754,1.249-5.653,0.855-8.515c-0.816-5.918-5.479-10.559-10.483-13.372c-1.468-0.825-3.002-1.538-4.521-2.263
						c-0.815-0.389-1.632-0.772-2.448-1.156c-0.023-0.011-0.533-0.26-0.197-0.093c0.408,0.203-0.351-0.185-0.475-0.25
						c-0.486-0.255-0.968-0.519-1.442-0.797c-2.66-1.562-4.977-3.679-7.031-5.97c-0.904-1.008-2.193-2.356-2.385-3.778
						c-0.036-0.266-0.047-0.703,0.227-0.868c-0.141,0.085-1.555-0.764-1.75-0.857C123.163,54.377,121.837,53.534,121.622,53.663
						L121.622,53.663z"/>
				</g>
				<path style="fill:#263238;stroke:#263238;stroke-linecap:round;stroke-linejoin:round;stroke-miterlimit:10;" d="
					M120.179,55.864c0,0-12.331,3.033-13.479,4.03c-1.147,0.998-1.131,2.584-0.025,2.547
					C107.781,62.404,120.179,55.864,120.179,55.864z"/>
				<path style="fill:#146EF5;stroke:#263238;stroke-linecap:round;stroke-linejoin:round;stroke-miterlimit:10;" d="
					M123.757,53.641c0,0,1.93-0.766,4.982-3.266c3.052-2.5,5.649-4.284,7.326-3.787s6.165,3.409,5.564,4.204
					c-0.601,0.795-1.718,0.463-4.911,0.976c-3.192,0.513-11.396,2.337-11.396,2.337L123.757,53.641z"/>
				<path style="fill:#263238;stroke:#263238;stroke-linecap:round;stroke-linejoin:round;stroke-miterlimit:10;" d="
					M141.629,50.792c0,0-0.273-1.54-2.729-1.052c-2.455,0.488-13.578,4.366-13.578,4.366L141.629,50.792z"/>
				<g>
					<path style="fill:#146EF5;stroke:#263238;stroke-linecap:round;stroke-linejoin:round;stroke-miterlimit:10;" d="
						M121.85,56.668c-1.042-3.713-2.316-7.387-3.825-10.935c-1.209-2.844-2.402-5.811-4.087-8.417
						c-1.407-2.176-3.281-3.492-5.99-3.373c-3.593,0.157-6.915,1.985-10.495,2.339c-2.5,0.247-5.006-0.374-7.462-0.748
						c-2.832-0.431-5.746-0.614-8.509,0.288c-3.344,1.091-5.934,3.596-7.958,6.392c-4.597,6.35-6.995,15.133-14.688,18.581
						c-0.026,0.012,1.567,3.569,1.595,3.556c11.914-5.341,11.95-25.71,27.133-25.628c2.574,0.014,5.086,0.585,7.623,0.942
						c2.927,0.412,5.586,0.014,8.423-0.803c2.869-0.826,6.166-2.156,9.08-0.782c1.911,0.901,3.028,2.937,3.959,4.736
						c0.159,0.308,0.311,0.619,0.464,0.931c0.271,0.552,0.5,1.326-0.569-1.28c0.087,0.211,0.178,0.42,0.265,0.63
						c0.279,0.676,0.546,1.357,0.805,2.041c0.493,1.302,0.954,2.617,1.391,3.939c0.442,1.336,0.869,2.679,1.249,4.034
						C120.603,54.352,121.504,55.435,121.85,56.668L121.85,56.668z"/>
				</g>
			</g>
			<path style="fill:#146EF5;stroke:#263238;stroke-linecap:round;stroke-linejoin:round;stroke-miterlimit:10;" d="M119.025,54.427
				c0,0,1.509,1.458,2.246,1.433c0.737-0.025,5.037-0.976,4.052-1.755C124.337,53.327,120.785,53.003,119.025,54.427z"/>
		</g>
	</g>
</g>
<g id="Gift_3">
	<g>
		<g>
			<g>
				<polygon style="fill:#146EF5;stroke:#263238;stroke-linecap:round;stroke-linejoin:round;stroke-miterlimit:10;" points="
					268.537,51.122 199.364,32.401 233.442,68.285 304.961,84.589 				"/>
				<polygon style="fill:#8C8C8C;stroke:#263238;stroke-linecap:round;stroke-linejoin:round;stroke-miterlimit:10;" points="
					279.338,60.701 211.706,45.497 222.323,56.507 291.087,72.39 				"/>
				<polygon style="fill:#8C8C8C;stroke:#263238;stroke-linecap:round;stroke-linejoin:round;stroke-miterlimit:10;" points="
					231.674,40.875 262.844,74.974 279.549,78.935 247.69,45.869 				"/>
				<polygon style="fill:#146EF5;stroke:#263238;stroke-linecap:round;stroke-linejoin:round;stroke-miterlimit:10;" points="
					233.442,68.285 212.886,116.143 181.822,76.691 199.364,32.401 				"/>
				<polygon style="fill:#8C8C8C;stroke:#263238;stroke-linecap:round;stroke-linejoin:round;stroke-miterlimit:10;" points="
					211.706,45.497 192.701,90.585 202.007,102.381 222.323,56.507 				"/>
				<polygon style="fill:#146EF5;stroke:#263238;stroke-linecap:round;stroke-linejoin:round;stroke-miterlimit:10;" points="
					212.886,116.143 285.628,129.703 304.961,84.589 233.442,68.285 				"/>
			</g>
		</g>
		<path style="fill:#8C8C8C;stroke:#263238;stroke-linecap:round;stroke-linejoin:round;stroke-miterlimit:10;" d="M248.206,51.553
			c0,0-3.272-4.822-5.339-14.983c-2.066-10.161-1.722-14.81-8.611-16.188c-2.418-0.484-8.611,5.683-12.572,12.399
			c-3.961,6.716-0.172,10.333,6.372,14.294c6.544,3.961,18.599,8.266,18.599,8.266L248.206,51.553z"/>
		<path style="fill:#8C8C8C;stroke:#263238;stroke-linecap:round;stroke-linejoin:round;stroke-miterlimit:10;" d="M252.752,51.016
			c0,0,12.35-4.722,21.795-6.175c9.444-1.453,11.261-1.09,11.261-1.09s4.359,9.081,3.269,15.62c-0.195,1.168-0.621,2.277-1.19,3.313
			c-2.923,5.318-9.49,7.46-15.134,5.229l-23.342-12.399L252.752,51.016z"/>
		<path style="fill:#263238;stroke:#263238;stroke-linecap:round;stroke-linejoin:round;stroke-miterlimit:10;" d="M285.808,43.751
			c0,0-1.816-0.363-11.261,1.09c-9.445,1.453-21.795,6.175-21.795,6.175s23.353-2.564,27.658-4.286
			C284.716,45.008,285.808,43.751,285.808,43.751z"/>
		<path style="fill:#8C8C8C;stroke:#263238;stroke-linecap:round;stroke-linejoin:round;stroke-miterlimit:10;" d="M248.393,58.281
			c0,0-0.544-5.359,2.741-3.285c3.272,2.067,21.116,1.485,24.626,3.444c7.405,4.133,14.81,13.777,15.327,13.949
			c0.517,0.172-2.583,0.344-15.499,0c-12.916-0.345-17.566-4.65-20.149-7.577C252.856,61.885,248.393,58.281,248.393,58.281z"/>
		<path style="fill:none;stroke:#263238;stroke-linecap:round;stroke-linejoin:round;stroke-miterlimit:10;" d="M249.412,55.514
			c0,0,2.928,2.411,7.405,4.478"/>
		<path style="fill:#8C8C8C;stroke:#263238;stroke-linecap:round;stroke-linejoin:round;stroke-miterlimit:10;" d="M252.752,51.016
			c0,0-5.085-0.363-6.902,2.18c-1.816,2.543,1.09,4.722,2.543,5.085C249.846,58.645,252.752,51.016,252.752,51.016z"/>
		<path style="fill:#545454;stroke:#263238;stroke-linecap:round;stroke-linejoin:round;stroke-miterlimit:10;" d="M217.897,48.797
			c0,0-6.2-1.55-8.955,0.689s-4.133,10.333-4.133,10.333s7.233-5.855,10.677-7.405s6.027-1.722,6.027-1.722L217.897,48.797z"/>
		<path style="fill:#8C8C8C;stroke:#263238;stroke-linecap:round;stroke-linejoin:round;stroke-miterlimit:10;" d="M245.85,53.196
			c0,0-5.738,0.768-12.11-0.782c-6.372-1.55-15.844-3.617-15.844-3.617s7.233,4.65,11.883,7.405
			c4.65,2.755,6.716,2.928,10.677,2.411c3.961-0.517,7.937-0.332,7.937-0.332S249.522,55.356,245.85,53.196z"/>
		<polygon style="fill:#8C8C8C;stroke:#263238;stroke-linecap:round;stroke-linejoin:round;stroke-miterlimit:10;" points="
			262.844,74.974 243.371,121.719 260.615,125.004 279.549,78.935 		"/>
	</g>
</g>
<g id="Gift_1">
	<g>
		<g>
			<polygon style="fill:#146EF5;stroke:#263238;stroke-linecap:round;stroke-linejoin:round;stroke-miterlimit:10;" points="
				174.604,150.124 225.765,203.599 168.431,203.111 106.432,142.989 			"/>
			<polygon style="fill:#146EF5;stroke:#263238;stroke-linecap:round;stroke-linejoin:round;stroke-miterlimit:10;" points="
				168.431,203.111 158.724,219.302 99.032,157.031 106.432,142.989 			"/>
			<polygon style="fill:#146EF5;stroke:#263238;stroke-linecap:round;stroke-linejoin:round;stroke-miterlimit:10;" points="
				158.724,219.302 217.803,218.202 225.765,203.599 168.431,203.111 			"/>
		</g>
		<polygon style="fill:#FFFFFF;stroke:#263238;stroke-linecap:round;stroke-linejoin:round;stroke-miterlimit:10;" points="
			199.62,176.07 137.582,173.039 131.19,166.968 194.513,170.964 		"/>
		<polygon style="fill:#FFFFFF;stroke:#263238;stroke-linecap:round;stroke-linejoin:round;stroke-miterlimit:10;" points="
			137.582,173.039 129.012,188.418 123.169,182.246 131.19,166.968 		"/>
		<polygon style="fill:#FFFFFF;stroke:#263238;stroke-linecap:round;stroke-linejoin:round;stroke-miterlimit:10;" points="
			151.952,147.842 201.97,203.161 194.006,203.225 143.424,146.938 		"/>
		<polygon style="fill:#FFFFFF;stroke:#263238;stroke-linecap:round;stroke-linejoin:round;stroke-miterlimit:10;" points="
			201.97,203.161 194.392,218.704 186.363,218.768 194.006,203.225 		"/>
	</g>
</g>
<g id="Bag_3">
	<g>
		<path style="fill:#146EF5;stroke:#263238;stroke-linecap:round;stroke-linejoin:round;stroke-miterlimit:10;" d="M83.817,222.401
			c0.521-0.311,1.216-0.456,2.051-0.479c-0.091,0.506-0.146,1.113-0.12,1.859c-0.486,0.008-0.842,0.087-1.059,0.216
			c-1.923,1.116,0.107,11.876,6.457,27.969c0.409,1.065,0.849,2.134,1.302,3.237l-1.581,1.366c-0.37-0.907-0.809-1.992-1.295-3.228
			c-1.174-3.02-2.631-6.857-3.926-10.779C80.428,226.802,81.919,223.512,83.817,222.401z"/>
		<path style="fill:#146EF5;stroke:#263238;stroke-linecap:round;stroke-linejoin:round;stroke-miterlimit:10;" d="M115.769,234.329
			l-1.584,1.253c-1.145-0.642-1.577-0.879-2.654-1.473c-11.885-6.452-19.694-9.358-23.764-10.116
			c-0.057-0.822-0.022-1.472,0.112-1.925c6.571,0.993,17.935,6.714,25.211,10.665C114.357,233.421,114.8,233.78,115.769,234.329z"/>
		<g>
			<polygon style="fill:#8C8C8C;stroke:#263238;stroke-linecap:round;stroke-linejoin:round;stroke-miterlimit:10;" points="
				79.444,266.703 80.057,266.149 126.101,224.585 129.482,228.574 91.388,261.859 			"/>
			<polygon style="fill:#595959;stroke:#263238;stroke-linecap:round;stroke-linejoin:round;stroke-miterlimit:10;" points="
				123.203,233.249 126.101,224.585 129.482,228.574 			"/>
			<polygon style="fill:#263238;stroke:#263238;stroke-linecap:round;stroke-linejoin:round;stroke-miterlimit:10;" points="
				86.447,265.244 142.236,350.047 209.29,290.359 131.191,226.397 			"/>
			<path style="fill:#146EF5;stroke:#263238;stroke-linecap:round;stroke-linejoin:round;stroke-miterlimit:10;" d="
				M122.035,234.334l-1.59,1.373c-1.236-0.758-2.421-1.47-3.575-2.162c-17.714-10.476-26.855-13.183-28.524-12.239
				c-0.217,0.128-0.383,0.375-0.469,0.761c-0.134,0.453-0.169,1.103-0.112,1.925c0.277,4.539,3.192,14.368,8.817,27.534
				c0.479,1.154,0.997,2.321,1.527,3.522l-1.574,1.375c-0.434-0.987-0.95-2.17-1.52-3.513c-1.385-3.287-3.11-7.462-4.672-11.722
				c-3.345-9.112-4.519-14.345-4.597-17.407c-0.026-0.746,0.029-1.353,0.12-1.859c0.247-1.352,0.838-1.994,1.487-2.362
				c4.34-2.449,21.184,6.762,31.073,12.609C119.781,232.965,120.995,233.696,122.035,234.334z"/>
		</g>
		<polygon style="fill:#595959;stroke:#263238;stroke-linecap:round;stroke-linejoin:round;stroke-miterlimit:10;" points="
			142.236,350.047 128.182,352.231 79.444,266.703 93.942,258.837 86.447,265.244 		"/>
		
			<line style="fill:none;stroke:#263238;stroke-linecap:round;stroke-linejoin:round;stroke-miterlimit:10;" x1="128.182" y1="352.231" x2="132.251" y2="335.927"/>
	</g>
</g>
<g id="Bag_2">
	<g>
		<g>
			<path style="fill:#263238;stroke:#263238;stroke-linecap:round;stroke-linejoin:round;stroke-miterlimit:10;" d="
				M240.202,208.607c0,0-2.565-42.176-1.14-48.446l8.549,45.881L240.202,208.607z"/>
			<path style="fill:#263238;stroke:#263238;stroke-linecap:round;stroke-linejoin:round;stroke-miterlimit:10;" d="
				M239.062,160.161c0,0,1.425-9.119,6.554-9.689c5.13-0.57,9.404,3.99,9.974,6.554c0.57,2.565,0.855,6.27,0.855,6.27
				s-5.415-8.834-9.974-7.409c-4.56,1.425-6.269,9.119-6.269,9.119L239.062,160.161z"/>
			<path style="fill:#263238;stroke:#263238;stroke-linecap:round;stroke-linejoin:round;stroke-miterlimit:10;" d="M255.59,157.026
				l3.42,45.026l7.694-3.42C266.704,198.632,260.72,165.86,255.59,157.026z"/>
		</g>
		<g>
			<g>
				<polygon style="fill:#FFFFFF;stroke:#263238;stroke-linecap:round;stroke-linejoin:round;stroke-miterlimit:10;" points="
					229.43,209.292 273.006,193.55 275.06,212.486 257.036,221.613 				"/>
				<polygon style="fill:#FFFFFF;stroke:#263238;stroke-linecap:round;stroke-linejoin:round;stroke-miterlimit:10;" points="
					273.006,193.55 301.981,196.288 274.147,206.555 				"/>
			</g>
			<g>
				<path style="fill:#146EF5;" d="M261.103,192.669l-11.803-13.999c0,0-1.098,24.156-1.098,24.979s12.901-6.862,12.901-6.862
					V192.669z"/>
				<polygon style="fill:#146EF5;" points="233.927,211.335 229.261,185.532 255.338,198.434 265.495,211.335 244.633,219.57 				
					"/>
				<polygon style="fill:#146EF5;" points="250.123,205.296 258.358,183.062 282.948,171.56 279.696,211.592 248.75,212.158 				"/>
				<polyline style="fill:#146EF5;" points="275.06,212.486 275.383,210.643 280.317,182.513 302.826,186.63 297.885,201.727 				
					"/>
			</g>
			<polygon style="fill:#FFFFFF;stroke:#263238;stroke-linecap:round;stroke-linejoin:round;stroke-miterlimit:10;" points="
				229.43,209.292 223.827,324.961 240.71,323.272 257.031,330.026 256.468,212.969 			"/>
			<path style="fill:#146EF5;" d="M236.006,221.121c1.516,0,2.746,3.512,2.746,7.845s-1.229,7.845-2.746,7.845
				c-1.516,0-2.746-3.512-2.746-7.845S234.49,221.121,236.006,221.121z M246.4,253.703c0,4.333,1.229,7.845,2.746,7.845
				s2.746-3.512,2.746-7.845s-1.229-7.845-2.746-7.845S246.4,249.371,246.4,253.703z M233.261,278.779
				c0,4.332,1.229,7.845,2.746,7.845c1.516,0,2.746-3.512,2.746-7.845c0-4.333-1.229-7.845-2.746-7.845
				C234.49,270.935,233.261,274.447,233.261,278.779z M246.4,303.517c0,4.332,1.229,7.845,2.746,7.845s2.746-3.512,2.746-7.845
				c0-4.333-1.229-7.845-2.746-7.845S246.4,299.184,246.4,303.517z"/>
			
				<line style="fill:none;stroke:#263238;stroke-linecap:round;stroke-linejoin:round;stroke-miterlimit:10;" x1="242.558" y1="248.147" x2="243.436" y2="212.438"/>
			
				<line style="fill:none;stroke:#263238;stroke-linecap:round;stroke-linejoin:round;stroke-miterlimit:10;" x1="240.71" y1="323.272" x2="242.422" y2="253.677"/>
			<polygon style="fill:#FFFFFF;stroke:#263238;stroke-linecap:round;stroke-linejoin:round;stroke-miterlimit:10;" points="
				257.031,330.026 322.312,294.571 301.981,196.288 256.468,212.969 			"/>
			<g>
				<path style="fill:#146EF5;" d="M268.562,241.909c0,4.333-1.229,7.845-2.746,7.845c-1.516,0-2.746-3.512-2.746-7.845
					c0-4.332,1.229-7.845,2.746-7.845C267.332,234.064,268.562,237.577,268.562,241.909z"/>
				<path style="fill:#146EF5;" d="M268.169,283.878c0,4.332-1.229,7.845-2.746,7.845c-1.516,0-2.746-3.512-2.746-7.845
					c0-4.333,1.229-7.845,2.746-7.845C266.94,276.034,268.169,279.546,268.169,283.878z"/>
				<ellipse style="fill:#146EF5;" cx="297.058" cy="224.803" rx="2.746" ry="7.845"/>
				<ellipse style="fill:#146EF5;" cx="299.838" cy="267.383" rx="2.746" ry="7.845"/>
				<ellipse style="fill:#146EF5;" cx="279.696" cy="219.436" rx="2.746" ry="7.845"/>
				<path style="fill:#146EF5;" d="M284.643,259.952c0,4.332-1.229,7.845-2.746,7.845c-1.516,0-2.746-3.512-2.746-7.845
					c0-4.332,1.229-7.845,2.746-7.845C283.414,252.107,284.643,255.62,284.643,259.952z"/>
				<ellipse style="fill:#146EF5;" cx="314.845" cy="287.016" rx="2.746" ry="7.845"/>
				<ellipse style="fill:#146EF5;" cx="264.617" cy="315.271" rx="2.746" ry="7.845"/>
				<ellipse style="fill:#146EF5;" cx="307.377" cy="244.769" rx="2.746" ry="7.845"/>
				<path style="fill:#146EF5;" d="M287.781,301.529c0,4.333-1.229,7.845-2.746,7.845c-1.516,0-2.746-3.512-2.746-7.845
					c0-4.332,1.229-7.845,2.746-7.845C286.552,293.684,287.781,297.196,287.781,301.529z"/>
			</g>
			<g>
				<path style="fill:#263238;stroke:#263238;stroke-linecap:round;stroke-linejoin:round;stroke-miterlimit:10;" d="
					M266.704,216.871c0,0-2.565-42.176-1.14-48.446l8.549,45.881L266.704,216.871z"/>
				<path style="fill:#263238;stroke:#263238;stroke-linecap:round;stroke-linejoin:round;stroke-miterlimit:10;" d="
					M265.564,168.425c0,0,1.425-9.119,6.555-9.689c5.129-0.57,9.404,3.99,9.974,6.554c0.57,2.565,0.855,6.27,0.855,6.27
					s-5.414-8.834-9.974-7.409c-4.56,1.425-6.27,9.119-6.27,9.119L265.564,168.425z"/>
				<path style="fill:#263238;stroke:#263238;stroke-linecap:round;stroke-linejoin:round;stroke-miterlimit:10;" d="
					M282.093,165.29l3.42,45.026l7.694-3.42C293.207,206.897,287.222,174.124,282.093,165.29z"/>
			</g>
		</g>
	</g>
</g>
<g id="Bag_1">
	<g>
		<polygon style="fill:#146EF5;stroke:#263238;stroke-linecap:round;stroke-linejoin:round;stroke-miterlimit:10;" points="
			386.459,176.006 316.3,174.212 291.306,161.964 350.327,162.256 		"/>
		<g>
			<polygon style="fill:#146EF5;stroke:#263238;stroke-linecap:round;stroke-linejoin:round;stroke-miterlimit:10;" points="
				403.799,63.385 350.327,162.256 386.459,176.006 412.009,66.659 406.131,69.856 			"/>
			
				<line style="fill:none;stroke:#263238;stroke-linecap:round;stroke-linejoin:round;stroke-miterlimit:10;" x1="406.131" y1="69.856" x2="368.972" y2="169.933"/>
			<polygon style="fill:#146EF5;stroke:#263238;stroke-linecap:round;stroke-linejoin:round;stroke-miterlimit:10;" points="
				403.799,63.385 345.272,78.221 291.306,161.964 350.327,162.256 			"/>
			<path style="fill:none;stroke:#263238;stroke-width:2;stroke-linecap:round;stroke-linejoin:round;stroke-miterlimit:10;" d="
				M378.822,73.415c0,0,13.694-21.657,6.384-26.162s-25.058,22.207-25.864,29.784"/>
			<path style="fill:none;stroke:#263238;stroke-width:2;stroke-linecap:round;stroke-linejoin:round;stroke-miterlimit:10;" d="
				M389.37,67.545c0,0,8.288-13.355,13.882-10.834c5.594,2.521,1.451,10.372,1.451,10.372"/>
		</g>
	</g>
</g>
</svg>