<?xml version="1.0" encoding="utf-8" ?>
<svg xmlns="http://www.w3.org/2000/svg" xmlns:xlink="http://www.w3.org/1999/xlink" width="250" height="250">
	<path fill="#148E9A" transform="scale(0.244141 0.244141)" d="M816.305 931.008C823.815 930.984 845.47 929.503 851.208 932.481C848.329 947.177 844.316 959.723 831.298 968.473C818.958 976.768 801.759 977.641 787.429 975.85C789.984 973.028 800.264 971.082 805.847 965.826C815.981 956.287 816.082 943.952 816.305 931.008Z"/>
	<path fill="#3BBDBA" transform="scale(0.244141 0.244141)" d="M815.871 304.087L888.847 304.09C900.198 304.03 911.739 304.324 923.068 303.613L875.559 721.905L859.424 864.376C856.785 887.027 855.029 910.008 851.208 932.481C845.47 929.503 823.815 930.984 816.305 931.008C816.963 899.402 816.348 867.641 816.334 836.023L816.251 652.312L816.186 483.833C816.18 453.923 816.795 423.889 816.038 394C816.604 381.86 816.258 369.738 816.212 357.592Q816.184 330.839 815.871 304.087Z"/>
	<path fill="#148E9A" transform="scale(0.244141 0.244141)" d="M100.819 304.058Q154.453 303.496 208.087 304.023L208.691 708.554L208.757 848.854C208.752 875.948 208.35 903.093 209.024 930.179C209.799 944.192 210.537 956.65 221.77 966.552C226.429 970.659 232.301 972.083 237.137 975.566C221.019 976.428 203.72 976.773 190.38 966.288C182.927 960.431 178.074 952.468 175.91 943.278C173.886 934.684 173.233 925.648 172.213 916.89L167.436 875.645L151.554 737.796L100.819 304.058Z"/>
	<path fill="#263F6D" transform="scale(0.244141 0.244141)" d="M816.038 394C816.795 423.889 816.18 453.923 816.186 483.833L816.251 652.312L816.334 836.023C816.348 867.641 816.963 899.402 816.305 931.008C816.082 943.952 815.981 956.287 805.847 965.826C800.264 971.082 789.984 973.028 787.429 975.85C775.586 976.451 763.591 976.089 751.729 976.087L690.722 976.061L503.397 976.027L326.978 975.84L269.686 975.824C258.877 975.824 247.925 976.187 237.137 975.566C232.301 972.083 226.429 970.659 221.77 966.552C210.537 956.65 209.799 944.192 209.024 930.179C226.638 929.472 244.274 924.384 261.204 919.626C317.324 903.852 370.388 882.006 420.252 851.607C428.594 846.52 437.845 841.392 445.244 834.986L445.122 834.692C457.27 827.504 473.941 812.558 484.107 802.692C488.335 807.581 493.259 811.882 499.109 814.704C506.002 818.029 513.793 819.359 521.135 816.598C544.303 807.886 555.482 771.02 564.688 750.097Q573.595 751.647 582.587 752.593C603.545 754.626 631.705 754.857 648.627 740.668C654.147 736.039 659.185 728.725 659.704 721.4C660.965 703.581 630.21 670.823 618.99 657.489C635.361 639.399 649.192 622.133 657.604 598.867C666.203 592.011 673.527 583.652 680.966 575.602Q690.613 565.146 700.632 555.046L701.038 616.65C701.008 632.606 700.446 648.739 701.006 664.675C741.253 610.687 772.173 545.581 792.967 481.669C799.414 461.854 805.215 441.523 809.55 421.143C810.632 416.055 813.577 397.465 816.038 394Z"/>
	<path fill="#DC465C" transform="scale(0.244141 0.244141)" d="M700.632 555.046L701.038 616.65C701.008 632.606 700.446 648.739 701.006 664.675C700.241 683.529 700.722 702.39 700.71 721.252C700.703 733.143 699.92 745.386 700.896 757.233C638.949 796.911 575.747 834.528 513.205 873.236Q491.048 862.085 469.742 849.383C461.714 844.593 453.97 838.397 445.244 834.986L445.122 834.692C457.27 827.504 473.941 812.558 484.107 802.692C488.335 807.581 493.259 811.882 499.109 814.704C506.002 818.029 513.793 819.359 521.135 816.598C544.303 807.886 555.482 771.02 564.688 750.097Q573.595 751.647 582.587 752.593C603.545 754.626 631.705 754.857 648.627 740.668C654.147 736.039 659.185 728.725 659.704 721.4C660.965 703.581 630.21 670.823 618.99 657.489C635.361 639.399 649.192 622.133 657.604 598.867C666.203 592.011 673.527 583.652 680.966 575.602Q690.613 565.146 700.632 555.046Z"/>
	<path fill="#3F5A89" transform="scale(0.244141 0.244141)" d="M352.979 208.267C354.272 197.094 354.122 185.909 356.242 174.822C362.914 139.927 384.036 106.137 411.776 84.0547C444.823 57.7485 486.631 44.3732 528.847 49.2605Q530.828 49.4958 532.803 49.7794Q534.778 50.063 536.746 50.3948Q538.713 50.7266 540.672 51.1064Q542.631 51.4861 544.58 51.9137Q546.529 52.3412 548.466 52.8163Q550.404 53.2913 552.33 53.8136Q554.256 54.3359 556.168 54.9051Q558.08 55.4742 559.978 56.09Q561.876 56.7057 563.758 57.3677Q565.641 58.0296 567.506 58.7374Q569.372 59.4452 571.219 60.1983Q573.067 60.9514 574.896 61.7495Q576.724 62.5476 578.533 63.3901Q580.341 64.2326 582.129 65.1191Q583.916 66.0056 585.682 66.9355Q587.447 67.8654 589.189 68.8382Q590.931 69.811 592.649 70.826Q594.367 71.8411 596.059 72.8978Q597.751 73.9546 599.418 75.0524Q601.084 76.1501 602.722 77.2883Q604.361 78.4265 605.972 79.6044Q607.582 80.7823 609.163 81.9992Q610.745 83.2161 612.296 84.4713Q613.847 85.7265 615.366 87.0192Q616.886 88.3119 618.374 89.6414Q619.862 90.9709 621.317 92.3363Q622.771 93.7018 624.193 95.1023Q625.614 96.5029 627 97.9379Q628.386 99.3728 629.737 100.841Q631.088 102.309 632.403 103.81Q633.717 105.311 634.995 106.844Q636.272 108.377 637.512 109.94Q639.072 111.935 640.569 113.978Q642.065 116.021 643.495 118.111Q644.926 120.201 646.29 122.335Q647.654 124.469 648.949 126.645Q650.245 128.821 651.471 131.037Q652.697 133.253 653.852 135.507Q655.007 137.76 656.09 140.05Q657.173 142.339 658.183 144.661Q659.193 146.984 660.129 149.337Q661.065 151.69 661.926 154.072Q662.787 156.453 663.572 158.861Q664.357 161.269 665.065 163.7Q665.774 166.132 666.404 168.585Q667.035 171.037 667.588 173.509Q668.141 175.98 668.615 178.468Q669.09 180.956 669.485 183.457C670.735 191.794 670.552 200.243 671.699 208.567C680.186 207.545 689.339 208.155 697.894 208.16L746.103 208.209L773.226 208.093C779.561 208.073 786.221 207.616 792.471 208.746C796.029 209.389 799.557 210.631 802.529 212.732C808.372 216.051 812.516 221.203 814.42 227.671C817.059 236.634 815.636 247.924 815.559 257.269L815.426 289.05C815.422 293.773 814.977 299.457 815.871 304.087Q816.184 330.839 816.212 357.592C816.258 369.738 816.604 381.86 816.038 394C813.577 397.465 810.632 416.055 809.55 421.143C805.215 441.523 799.414 461.854 792.967 481.669C772.173 545.581 741.253 610.687 701.006 664.675C700.446 648.739 701.008 632.606 701.038 616.65L700.632 555.046Q690.613 565.146 680.966 575.602C673.527 583.652 666.203 592.011 657.604 598.867C649.192 622.133 635.361 639.399 618.99 657.489C630.21 670.823 660.965 703.581 659.704 721.4C659.185 728.725 654.147 736.039 648.627 740.668C631.705 754.857 603.545 754.626 582.587 752.593Q573.595 751.647 564.688 750.097C555.482 771.02 544.303 807.886 521.135 816.598C513.793 819.359 506.002 818.029 499.109 814.704C493.259 811.882 488.335 807.581 484.107 802.692C473.941 812.558 457.27 827.504 445.122 834.692L445.244 834.986C437.845 841.392 428.594 846.52 420.252 851.607C370.388 882.006 317.324 903.852 261.204 919.626C244.274 924.384 226.638 929.472 209.024 930.179C208.35 903.093 208.752 875.948 208.757 848.854L208.691 708.554L208.087 304.023Q207.869 281.709 207.897 259.394C207.845 249.52 207.179 239.086 208.245 229.278C209.012 222.219 212.04 217.211 217.533 212.826C220.268 210.659 223.583 209.126 227.04 208.624C242.48 206.378 264.39 208.102 280.663 208.097L326.999 208.051C335.61 208.041 344.396 207.663 352.979 208.267ZM383.915 208.301C384.32 235.505 383.99 262.755 383.964 289.964C393.612 290.089 403.006 289.379 412.618 289.052C423.111 288.696 433.676 288.935 444.18 288.918L640.673 288.879C641.016 270.606 640.694 252.267 640.681 233.985C640.676 225.364 640.409 216.622 640.943 208.017C641.284 201.322 640.294 194.638 639.062 188.07C634.3 162.685 622.656 139.908 605.377 120.786Q604.362 119.649 603.32 118.538Q602.278 117.426 601.208 116.34Q600.139 115.255 599.043 114.196Q597.947 113.137 596.826 112.106Q595.704 111.074 594.558 110.07Q593.411 109.066 592.24 108.091Q591.069 107.116 589.875 106.17Q588.68 105.224 587.463 104.308Q586.245 103.391 585.006 102.505Q583.766 101.619 582.505 100.764Q581.244 99.9083 579.962 99.0843Q578.68 98.2602 577.378 97.468Q576.077 96.6757 574.756 95.9157Q573.435 95.1558 572.096 94.4285Q570.757 93.7013 569.401 93.0072Q568.044 92.3132 566.671 91.6527Q565.297 90.9922 563.908 90.3658Q562.519 89.7393 561.115 89.1472Q559.711 88.5552 558.293 87.9978Q556.875 87.4405 555.443 86.9182Q554.012 86.396 552.568 85.9091Q551.124 85.4222 549.668 84.971Q548.213 84.5198 546.747 84.1046Q545.28 83.6894 543.804 83.3103Q542.328 82.9313 540.844 82.5888Q539.359 82.2462 537.866 81.9402Q536.373 81.6343 534.873 81.3652Q533.374 81.0961 531.868 80.864Q530.362 80.6319 528.85 80.437Q527.339 80.242 525.823 80.0843Q524.308 79.9266 522.789 79.8063Q521.27 79.6859 519.748 79.603Q518.146 79.521 516.542 79.4787Q514.938 79.4365 513.333 79.4339Q511.729 79.4314 510.125 79.4686Q508.52 79.5057 506.918 79.5826Q505.315 79.6595 503.715 79.7761Q502.115 79.8926 500.518 80.0488Q498.921 80.2049 497.328 80.4006Q495.736 80.5962 494.148 80.8313Q492.561 81.0663 490.98 81.3405Q489.399 81.6148 487.826 81.9281Q486.252 82.2414 484.687 82.5936Q483.121 82.9458 481.565 83.3366Q480.009 83.7274 478.463 84.1567Q476.917 84.5859 475.382 85.0533Q473.847 85.5207 472.324 86.026Q470.801 86.5313 469.292 87.0741Q467.782 87.6169 466.286 88.197Q464.79 88.777 463.308 89.3939Q461.827 90.0108 460.362 90.6642Q458.896 91.3176 457.448 92.0071Q455.999 92.6966 454.567 93.4218Q453.136 94.1469 451.723 94.9073Q450.31 95.6677 448.917 96.4628Q447.523 97.2579 446.15 98.0873Q444.776 98.9167 443.423 99.7798Q442.071 100.643 440.74 101.539Q439.409 102.436 438.101 103.365Q436.793 104.294 435.508 105.255Q434.223 106.216 432.963 107.209Q431.702 108.202 430.467 109.225Q429.231 110.249 428.021 111.303Q426.811 112.356 425.628 113.44C401.747 135.037 385.52 166.962 383.978 199.233C383.836 202.219 383.686 205.317 383.915 208.301Z"/>
	<path fill="#FEFEFE" transform="scale(0.244141 0.244141)" d="M672.084 354.953C683.793 361.09 692.686 370.34 696.696 383.128C698.54 389.006 699.158 395.201 697.692 401.231L691.635 400.93C684.69 395.992 677.466 388.856 672.741 381.77C670.858 373.274 671.864 363.594 672.084 354.953Z"/>
	<path fill="#D4D4D5" transform="scale(0.244141 0.244141)" d="M324.381 396.496C324.687 396.598 324.995 396.697 325.299 396.803C330.056 398.458 334.293 401.589 339.145 403.283C359.179 410.278 381.362 409.573 401.44 403.265C399.992 408.632 397.963 413.605 394.595 418.078Q394.038 418.833 393.444 419.558Q392.849 420.283 392.219 420.978Q391.589 421.673 390.925 422.335Q390.261 422.996 389.564 423.624Q388.867 424.252 388.139 424.843Q387.412 425.435 386.655 425.989Q385.899 426.543 385.115 427.059Q384.332 427.574 383.523 428.049Q382.715 428.525 381.883 428.958Q381.052 429.392 380.199 429.784Q379.347 430.175 378.476 430.523Q377.605 430.871 376.718 431.174Q375.831 431.478 374.929 431.736Q374.028 431.995 373.114 432.207Q372.201 432.42 371.278 432.586Q370.355 432.752 369.425 432.872C358.613 434.219 347.045 430.922 338.512 424.182C329.427 417.006 325.709 407.729 324.381 396.496Z"/>
	<path fill="#FEFEFE" transform="scale(0.244141 0.244141)" d="M352.465 355.427C352.596 366.385 349.234 389.977 357.787 397.831C360.82 400.616 364.875 401.303 368.862 400.969C373.193 400.607 377.105 398.993 379.82 395.494C386.63 386.72 383.387 371.635 384.045 361.249C392.448 366.439 398.418 375.671 400.646 385.225C402.03 391.163 401.798 397.226 401.44 403.265C381.362 409.573 359.179 410.278 339.145 403.283C334.293 401.589 330.056 398.458 325.299 396.803C324.995 396.697 324.687 396.598 324.381 396.496C324.486 390.51 325.178 384.798 327.414 379.194C332.059 367.554 341.26 360.337 352.465 355.427Z"/>
	<path fill="#D4D4D5" transform="scale(0.244141 0.244141)" d="M640.834 363.476C640.849 363.687 640.865 363.899 640.878 364.11C641.435 373.639 637.685 390.43 645.341 397.795C645.893 398.326 646.517 398.763 647.135 399.212C651.43 397.291 657.629 400.193 662.106 397.919C667.175 395.344 668.116 389.152 672.006 385.831C672.177 385.686 672.354 385.548 672.527 385.407C672.505 384.207 672.659 382.97 672.741 381.77C677.466 388.856 684.69 395.992 691.635 400.93L697.692 401.231Q697.487 402.16 697.238 403.077Q696.989 403.995 696.696 404.9Q696.402 405.804 696.066 406.694Q695.729 407.583 695.35 408.455Q694.971 409.327 694.551 410.18Q694.13 411.033 693.669 411.864Q693.207 412.696 692.706 413.504Q692.205 414.313 691.666 415.096Q691.127 415.879 690.55 416.635Q689.974 417.391 689.361 418.119Q688.749 418.847 688.102 419.544Q687.456 420.241 686.776 420.906Q686.096 421.571 685.386 422.203Q684.675 422.834 683.934 423.431Q683.194 424.027 682.425 424.588Q681.657 425.148 680.862 425.67Q680.088 426.188 679.289 426.668Q678.49 427.147 677.668 427.585Q676.846 428.024 676.003 428.421Q675.16 428.818 674.298 429.173Q673.436 429.527 672.558 429.838Q671.68 430.149 670.787 430.416Q669.894 430.683 668.989 430.905Q668.084 431.127 667.17 431.304Q666.255 431.48 665.332 431.611Q664.41 431.741 663.482 431.826Q662.554 431.91 661.623 431.948Q660.692 431.986 659.76 431.978Q658.828 431.969 657.898 431.915Q656.968 431.86 656.042 431.758Q655.116 431.657 654.196 431.51Q653.276 431.362 652.364 431.169Q651.453 430.978 650.553 430.742Q649.653 430.507 648.766 430.226Q647.879 429.946 647.007 429.622Q646.134 429.298 645.279 428.93Q644.425 428.563 643.589 428.154Q642.753 427.744 641.939 427.294Q641.125 426.843 640.334 426.353Q639.544 425.863 638.778 425.333Q638.013 424.804 637.275 424.237Q636.537 423.671 635.828 423.068Q635.12 422.465 634.442 421.828Q633.764 421.191 633.118 420.52Q632.473 419.85 631.862 419.148Q631.251 418.447 630.675 417.716Q630.1 416.985 629.561 416.226Q629.023 415.467 628.523 414.682Q628.04 413.921 627.596 413.137Q627.152 412.353 626.748 411.548Q626.344 410.742 625.98 409.918Q625.617 409.093 625.295 408.251Q624.973 407.41 624.694 406.553Q624.414 405.696 624.178 404.826Q623.942 403.957 623.75 403.076Q623.558 402.196 623.41 401.307Q623.262 400.418 623.159 399.523Q623.055 398.628 622.997 397.729Q622.939 396.829 622.925 395.928Q622.912 395.027 622.944 394.127Q622.975 393.226 623.052 392.328Q623.129 391.43 623.251 390.538Q623.372 389.645 623.539 388.759Q623.705 387.873 623.915 386.997C626.268 376.996 632.105 368.867 640.834 363.476Z"/>
	<path fill="#F0BC50" transform="scale(0.244141 0.244141)" d="M647.135 399.212C651.43 397.291 657.629 400.193 662.106 397.919C667.175 395.344 668.116 389.152 672.006 385.831C672.177 385.686 672.354 385.548 672.527 385.407C672.033 391.208 671.066 396.556 666.278 400.481Q665.777 400.898 665.237 401.262Q664.697 401.625 664.123 401.933Q663.549 402.24 662.946 402.488Q662.344 402.736 661.719 402.921Q661.095 403.107 660.455 403.228Q659.815 403.35 659.166 403.406Q658.517 403.462 657.866 403.452Q657.215 403.442 656.568 403.366C653.111 402.986 649.885 401.264 647.135 399.212Z"/>
	<path fill="#263F6D" transform="scale(0.244141 0.244141)" d="M217.533 212.826C220.268 210.659 223.583 209.126 227.04 208.624C242.48 206.378 264.39 208.102 280.663 208.097L326.999 208.051C335.61 208.041 344.396 207.663 352.979 208.267Q352.2 248.887 352.576 289.512L256.919 289.605Q256.872 277.161 257.08 264.719C257.278 250.773 259.128 235.283 248.742 224.266C240.377 215.394 232.155 215.279 220.964 214.47C219.161 214.339 218.735 214.174 217.533 212.826Z"/>
	<path fill="#263F6D" transform="scale(0.244141 0.244141)" d="M746.103 208.209L773.226 208.093C779.561 208.073 786.221 207.616 792.471 208.746C796.029 209.389 799.557 210.631 802.529 212.732C802.309 212.824 802.091 212.92 801.869 213.009C799.298 214.036 796.084 213.941 793.359 214.646C785.917 216.572 779.484 223.182 776.259 230.014C773.138 236.625 772.673 244.458 772.529 251.651C772.38 259.12 775.941 285.168 768.116 288.272C760.725 291.205 718.506 289.854 707.781 289.402C696.099 289.656 684.289 289.217 672.592 289.196Q672.519 275.151 672.666 261.107C672.694 255.595 673.315 249.099 672.126 243.717C671.75 232.039 672.85 220.202 671.699 208.567C680.186 207.545 689.339 208.155 697.894 208.16L746.103 208.209Z"/>
	<path fill="#FAC178" transform="scale(0.244141 0.244141)" d="M352.979 208.267C354.272 197.094 354.122 185.909 356.242 174.822C362.914 139.927 384.036 106.137 411.776 84.0547C444.823 57.7485 486.631 44.3732 528.847 49.2605Q530.828 49.4958 532.803 49.7794Q534.778 50.063 536.746 50.3948Q538.713 50.7266 540.672 51.1064Q542.631 51.4861 544.58 51.9137Q546.529 52.3412 548.466 52.8163Q550.404 53.2913 552.33 53.8136Q554.256 54.3359 556.168 54.9051Q558.08 55.4742 559.978 56.09Q561.876 56.7057 563.758 57.3677Q565.641 58.0296 567.506 58.7374Q569.372 59.4452 571.219 60.1983Q573.067 60.9514 574.896 61.7495Q576.724 62.5476 578.533 63.3901Q580.341 64.2326 582.129 65.1191Q583.916 66.0056 585.682 66.9355Q587.447 67.8654 589.189 68.8382Q590.931 69.811 592.649 70.826Q594.367 71.8411 596.059 72.8978Q597.751 73.9546 599.418 75.0524Q601.084 76.1501 602.722 77.2883Q604.361 78.4265 605.972 79.6044Q607.582 80.7823 609.163 81.9992Q610.745 83.2161 612.296 84.4713Q613.847 85.7265 615.366 87.0192Q616.886 88.3119 618.374 89.6414Q619.862 90.9709 621.317 92.3363Q622.771 93.7018 624.193 95.1023Q625.614 96.5029 627 97.9379Q628.386 99.3728 629.737 100.841Q631.088 102.309 632.403 103.81Q633.717 105.311 634.995 106.844Q636.272 108.377 637.512 109.94Q639.072 111.935 640.569 113.978Q642.065 116.021 643.495 118.111Q644.926 120.201 646.29 122.335Q647.654 124.469 648.949 126.645Q650.245 128.821 651.471 131.037Q652.697 133.253 653.852 135.507Q655.007 137.76 656.09 140.05Q657.173 142.339 658.183 144.661Q659.193 146.984 660.129 149.337Q661.065 151.69 661.926 154.072Q662.787 156.453 663.572 158.861Q664.357 161.269 665.065 163.7Q665.774 166.132 666.404 168.585Q667.035 171.037 667.588 173.509Q668.141 175.98 668.615 178.468Q669.09 180.956 669.485 183.457C670.735 191.794 670.552 200.243 671.699 208.567C672.85 220.202 671.75 232.039 672.126 243.717Q671.961 282.138 672.181 320.56C672.208 331.911 671.43 343.665 672.084 354.953C671.864 363.594 670.858 373.274 672.741 381.77C672.659 382.97 672.505 384.207 672.527 385.407C672.354 385.548 672.177 385.686 672.006 385.831C668.116 389.152 667.175 395.344 662.106 397.919C657.629 400.193 651.43 397.291 647.135 399.212C646.517 398.763 645.893 398.326 645.341 397.795C637.685 390.43 641.435 373.639 640.878 364.11C640.865 363.899 640.849 363.687 640.834 363.476C639.623 355.523 640.488 346.362 640.52 338.294L640.673 288.879C641.016 270.606 640.694 252.267 640.681 233.985C640.676 225.364 640.409 216.622 640.943 208.017C641.284 201.322 640.294 194.638 639.062 188.07C634.3 162.685 622.656 139.908 605.377 120.786Q604.362 119.649 603.32 118.538Q602.278 117.426 601.208 116.34Q600.139 115.255 599.043 114.196Q597.947 113.137 596.826 112.106Q595.704 111.074 594.558 110.07Q593.411 109.066 592.24 108.091Q591.069 107.116 589.875 106.17Q588.68 105.224 587.463 104.308Q586.245 103.391 585.006 102.505Q583.766 101.619 582.505 100.764Q581.244 99.9083 579.962 99.0843Q578.68 98.2602 577.378 97.468Q576.077 96.6757 574.756 95.9157Q573.435 95.1558 572.096 94.4285Q570.757 93.7013 569.401 93.0072Q568.044 92.3132 566.671 91.6527Q565.297 90.9922 563.908 90.3658Q562.519 89.7393 561.115 89.1472Q559.711 88.5552 558.293 87.9978Q556.875 87.4405 555.443 86.9182Q554.012 86.396 552.568 85.9091Q551.124 85.4222 549.668 84.971Q548.213 84.5198 546.747 84.1046Q545.28 83.6894 543.804 83.3103Q542.328 82.9313 540.844 82.5888Q539.359 82.2462 537.866 81.9402Q536.373 81.6343 534.873 81.3652Q533.374 81.0961 531.868 80.864Q530.362 80.6319 528.85 80.437Q527.339 80.242 525.823 80.0843Q524.308 79.9266 522.789 79.8063Q521.27 79.6859 519.748 79.603Q518.146 79.521 516.542 79.4787Q514.938 79.4365 513.333 79.4339Q511.729 79.4314 510.125 79.4686Q508.52 79.5057 506.918 79.5826Q505.315 79.6595 503.715 79.7761Q502.115 79.8926 500.518 80.0488Q498.921 80.2049 497.328 80.4006Q495.736 80.5962 494.148 80.8313Q492.561 81.0663 490.98 81.3405Q489.399 81.6148 487.826 81.9281Q486.252 82.2414 484.687 82.5936Q483.121 82.9458 481.565 83.3366Q480.009 83.7274 478.463 84.1567Q476.917 84.5859 475.382 85.0533Q473.847 85.5207 472.324 86.026Q470.801 86.5313 469.292 87.0741Q467.782 87.6169 466.286 88.197Q464.79 88.777 463.308 89.3939Q461.827 90.0108 460.362 90.6642Q458.896 91.3176 457.448 92.0071Q455.999 92.6966 454.567 93.4218Q453.136 94.1469 451.723 94.9073Q450.31 95.6677 448.917 96.4628Q447.523 97.2579 446.15 98.0873Q444.776 98.9167 443.423 99.7798Q442.071 100.643 440.74 101.539Q439.409 102.436 438.101 103.365Q436.793 104.294 435.508 105.255Q434.223 106.216 432.963 107.209Q431.702 108.202 430.467 109.225Q429.231 110.249 428.021 111.303Q426.811 112.356 425.628 113.44C401.747 135.037 385.52 166.962 383.978 199.233C383.836 202.219 383.686 205.317 383.915 208.301C384.32 235.505 383.99 262.755 383.964 289.964L383.924 336.038C383.852 344.192 382.676 353.236 384.045 361.249C383.387 371.635 386.63 386.72 379.82 395.494C377.105 398.993 373.193 400.607 368.862 400.969C364.875 401.303 360.82 400.616 357.787 397.831C349.234 389.977 352.596 366.385 352.465 355.427L352.576 289.512Q352.201 248.886 352.979 208.267Z"/>
	<path fill="#EC8162" transform="scale(0.244141 0.244141)" d="M512.309 435.795C529.541 448.598 548.958 459.15 567.2 470.503L661.983 530.022C670.84 535.567 694.745 548.344 700.632 555.046Q690.613 565.146 680.966 575.602C673.527 583.652 666.203 592.011 657.604 598.867C658.606 588.899 658.176 579.706 651.436 571.605C642.697 561.098 629.049 557.431 615.957 556.388C599.567 555.082 582.989 558.012 567.002 561.32C559.42 538.748 547.066 503.31 524.533 492.27C517.797 488.969 510.275 488.446 503.165 490.927C486.067 496.893 475.956 516.126 468.701 531.452C464.176 541.013 460.166 550.601 457.103 560.74C431.894 556.657 400.868 551.705 378.707 567.799C372.564 572.261 368.127 578.346 366.835 585.979C364.211 601.489 374.419 617.432 383.197 629.278C390.104 638.599 397.669 647.512 405.322 656.226C392.066 672.667 364.386 703.678 366.575 725.705C367.168 731.667 370.012 736.804 374.699 740.524C392.51 754.664 431.517 750.778 453.197 747.844C454.155 747.715 455.079 747.555 456.024 747.352C463.497 767.079 470.891 785.906 484.107 802.692C473.941 812.558 457.27 827.504 445.122 834.692C431.34 827.755 418.301 818.734 405.249 810.5L320.277 755.769L320.436 554.449C339.668 542.201 359.374 530.586 378.755 518.554L512.309 435.795Z"/>
	<path fill="#263F6D" transform="scale(0.244141 0.244141)" d="M383.915 208.301C413.044 207.288 442.463 208.099 471.618 208.097L640.943 208.017C640.409 216.622 640.676 225.364 640.681 233.985C640.694 252.267 641.016 270.606 640.673 288.879L444.18 288.918C433.676 288.935 423.111 288.696 412.618 289.052C403.006 289.379 393.612 290.089 383.964 289.964C383.99 262.755 384.32 235.505 383.915 208.301Z"/>
	<path fill="#FEFEFE" transform="scale(0.244141 0.244141)" d="M457.103 560.74C460.166 550.601 464.176 541.013 468.701 531.452C475.956 516.126 486.067 496.893 503.165 490.927C510.275 488.446 517.797 488.969 524.533 492.27C547.066 503.31 559.42 538.748 567.002 561.32C582.989 558.012 599.567 555.082 615.957 556.388C629.049 557.431 642.697 561.098 651.436 571.605C658.176 579.706 658.606 588.899 657.604 598.867C649.192 622.133 635.361 639.399 618.99 657.489C630.21 670.823 660.965 703.581 659.704 721.4C659.185 728.725 654.147 736.039 648.627 740.668C631.705 754.857 603.545 754.626 582.587 752.593Q573.595 751.647 564.688 750.097C555.482 771.02 544.303 807.886 521.135 816.598C513.793 819.359 506.002 818.029 499.109 814.704C493.259 811.882 488.335 807.581 484.107 802.692C470.891 785.906 463.497 767.079 456.024 747.352C455.079 747.555 454.155 747.715 453.197 747.844C431.517 750.778 392.51 754.664 374.699 740.524C370.012 736.804 367.168 731.667 366.575 725.705C364.386 703.678 392.066 672.667 405.322 656.226C397.669 647.512 390.104 638.599 383.197 629.278C374.419 617.432 364.211 601.489 366.835 585.979C368.127 578.346 372.564 572.261 378.707 567.799C400.868 551.705 431.894 556.657 457.103 560.74Z"/>
	<path fill="#DC465C" transform="scale(0.244141 0.244141)" d="M600.49 638.722C605.848 633.931 620.501 622.059 627.541 621.624C621.225 630.022 614.265 637.652 606.754 644.984L600.49 638.722Z"/>
	<path fill="#DC465C" transform="scale(0.244141 0.244141)" d="M464.99 708.619C467.083 709.335 489.991 723.228 490.577 724.212L488.371 724.733Q478.521 726.303 468.766 728.384C467.698 721.78 466.176 715.211 464.99 708.619Z"/>
	<path fill="#EC8162" transform="scale(0.244141 0.244141)" d="M442.831 641.436C444.808 644.2 443.512 664.5 443.502 669.175C440.488 667.275 437.755 664.898 434.987 662.659L428.264 656.012C432.705 650.756 437.787 646.099 442.831 641.436Z"/>
	<path fill="#DC465C" transform="scale(0.244141 0.244141)" d="M557.45 709.051L557.875 709.734C557.659 716.747 555.016 724.161 553.215 730.908C548.298 729.536 543.497 727.937 538.674 726.273C536.644 725.593 534.661 724.704 532.675 723.901C541.262 719.319 549.374 714.491 557.45 709.051Z"/>
	<path fill="#DC465C" transform="scale(0.244141 0.244141)" d="M579.513 641.109C584.412 643.405 592.015 652.838 595.592 657.206L587.463 665.25C584.766 668.035 581.768 670.588 578.903 673.202C580.417 662.648 579.663 651.741 579.513 641.109Z"/>
	<path fill="#EC8162" transform="scale(0.244141 0.244141)" d="M469.269 580.916C476.882 583.36 484.393 585.794 491.878 588.619Q484.767 592.692 477.737 596.905C473.766 599.89 468.816 602.393 464.553 605.004Q466.563 592.892 469.269 580.916Z"/>
	<path fill="#EC8162" transform="scale(0.244141 0.244141)" d="M553.584 581.586C554.188 581.606 554.579 581.902 555.105 582.179C558.496 586.8 559.028 599.26 559.739 605.108C555.635 602.839 551.666 600.499 547.741 597.927C542.836 594.905 537.923 592.006 532.838 589.295C539.746 586.641 546.583 583.995 553.584 581.586Z"/>
	<path fill="#DC465C" transform="scale(0.244141 0.244141)" d="M416.089 668.923C425.64 677.775 435.95 685.865 445.157 695.059C448.308 706.977 450.031 719.343 452.906 731.351Q438.085 733.385 423.125 733.483C413.52 733.513 397.083 734.792 389.339 728.237C386.956 726.22 385.684 723.469 385.482 720.373C384.514 705.493 406.469 680.172 416.089 668.923Z"/>
	<path fill="#DC465C" transform="scale(0.244141 0.244141)" d="M510.596 734.012C522.897 739.012 535.673 742.747 548.249 746.982Q546.612 751.479 544.858 755.931C538.314 772.512 530.948 793.327 513.494 800.893C510.427 800.455 507.99 799.558 505.314 797.963C489.044 788.269 479.313 762.392 475.06 744.998C486.928 741.219 499.135 739.08 510.596 734.012Z"/>
	<path fill="#DC465C" transform="scale(0.244141 0.244141)" d="M607.658 670.062C608.004 670.353 608.356 670.638 608.686 670.947C617.434 679.122 642.16 709.376 642.295 720.252C642.332 723.264 641.142 726.038 639.008 728.154C631.711 735.389 615.764 736.333 606.07 736.486C593.837 736.579 582.073 735.808 569.937 734.306Q573.649 715.702 577.009 697.031C587.512 688.24 597.685 679.46 607.658 670.062Z"/>
	<path fill="#EC8162" transform="scale(0.244141 0.244141)" d="M413.544 573.706C426.317 572.587 439.451 575.155 451.838 578.063C449.376 590.975 446.568 604.523 445.418 617.625C441.373 621.851 436.559 625.358 432.155 629.201C427.951 632.87 423.989 636.852 419.985 640.737L417.545 643.505Q416.342 642.697 415.228 641.771C403.453 631.963 385.578 608.781 384.391 593.236C384.071 589.054 384.986 585.498 387.762 582.302C393.9 575.234 404.845 574.343 413.544 573.706Z"/>
	<path fill="#EC8162" transform="scale(0.244141 0.244141)" d="M571.809 577.834Q577.458 576.242 583.226 575.16Q588.994 574.078 594.836 573.515C607.516 572.281 626.665 571.109 637.064 580.067C640.035 582.626 641.638 586.016 641.819 589.924C642.286 600.03 634.198 614.393 627.541 621.624C620.501 622.059 605.848 633.931 600.49 638.722C593.55 631.851 586.203 625.08 578.299 619.343C576.737 605.301 574.753 591.675 571.809 577.834Z"/>
	<path fill="#EC8162" transform="scale(0.244141 0.244141)" d="M509.565 506.601C513.335 506.147 515.694 506.246 519.076 508.117C533.357 516.015 546.691 549.292 551.027 565.074C538.789 569.509 526.768 574.396 514.599 578.994C507.876 576.949 501.308 574.16 494.685 571.795C487.705 569.302 480.584 567.152 473.512 564.934C475.242 559.582 477.015 554.213 479.031 548.961C485.236 532.799 492.844 514.051 509.565 506.601Z"/>
	<path fill="#3F5A89" transform="scale(0.244141 0.244141)" d="M512.943 598.487C525.396 601.109 552.484 619.812 562.681 628.297C562.987 639.721 563.309 651.267 562.926 662.69C562.657 670.7 561.863 678.614 561.418 686.602C553.012 692.149 520.36 715.398 511.578 715.1C502.453 710.518 493.421 705.922 484.718 700.566C477.174 695.923 470.031 690.729 462.632 685.873C457.55 667.994 459.912 646.567 461.099 628.21C476.677 616.116 494.461 605.422 512.943 598.487Z"/>
	<path fill="#FEFEFE" transform="scale(0.244141 0.244141)" d="M509.815 637.123C513.331 636.911 516.742 637.468 519.881 639.124C524.276 641.444 527.28 645.545 528.734 650.247C530.399 655.63 530.152 661.866 527.302 666.813C523.973 672.592 518.753 674.576 512.652 676.121C508.365 675.705 504.592 675.215 500.846 672.849C496.359 670.014 493.343 665.297 492.244 660.142Q492.141 659.66 492.063 659.174Q491.984 658.687 491.931 658.197Q491.878 657.707 491.849 657.216Q491.821 656.724 491.817 656.231Q491.814 655.738 491.836 655.246Q491.858 654.753 491.905 654.263Q491.951 653.772 492.023 653.285Q492.095 652.797 492.191 652.314Q492.288 651.831 492.409 651.353Q492.53 650.876 492.675 650.405Q492.82 649.934 492.989 649.471Q493.158 649.008 493.351 648.554Q493.543 648.101 493.758 647.657Q493.973 647.214 494.211 646.782Q494.448 646.351 494.708 645.931Q494.967 645.512 495.247 645.107C498.749 640.09 503.998 638.032 509.815 637.123Z"/>
</svg>
